<?xml version="1.0" standalone="no"?>
<!DOCTYPE svg PUBLIC "-//W3C//DTD SVG 20010904//EN"
 "http://www.w3.org/TR/2001/REC-SVG-20010904/DTD/svg10.dtd">
<svg version="1.0" xmlns="http://www.w3.org/2000/svg"
 width="945.000000pt" height="945.000000pt" viewBox="0 0 945.000000 945.000000"
 preserveAspectRatio="xMidYMid meet">
<metadata>
Created by potrace 1.14, written by Peter Selinger 2001-2017
</metadata>
<g transform="translate(0.000000,945.000000) scale(0.100000,-0.100000)"
fill="#000000" stroke="none">
<path d="M0 4725 l0 -4725 4725 0 4725 0 0 4725 0 4725 -4725 0 -4725 0 0
-4725z m4461 3419 c182 -53 325 -209 358 -388 8 -42 11 -922 11 -2970 0 -2562
-2 -2919 -15 -2975 -42 -175 -183 -313 -367 -356 -95 -22 -1466 -22 -1552 0
-195 51 -331 202 -356 395 -6 46 -9 1181 -10 2965 0 3151 -3 2958 57 3081 56
115 177 215 302 250 35 9 221 12 782 13 646 1 742 -1 790 -15z m1489 -2979 l0
-2985 500 0 500 0 0 -370 0 -370 -990 0 -990 0 0 3355 0 3355 490 0 490 0 0
-2985z"/>
<path d="M3510 4810 l0 -2630 175 0 175 0 -2 2628 -3 2627 -172 3 -173 2 0
-2630z"/>
</g>
</svg>
